<?xml version="1.0" standalone="no"?>
<!DOCTYPE svg PUBLIC "-//W3C//DTD SVG 20010904//EN"
 "http://www.w3.org/TR/2001/REC-SVG-20010904/DTD/svg10.dtd">
<svg version="1.0" xmlns="http://www.w3.org/2000/svg"
 width="246.000000pt" height="246.000000pt" viewBox="0 0 246.000000 246.000000"
 preserveAspectRatio="xMidYMid meet">

<g transform="translate(0.000000,246.000000) scale(0.100000,-0.100000)"
fill="#000000" stroke="none">
<path d="M1462 2126 c7 -8 15 -12 17 -11 5 6 -10 25 -20 25 -5 0 -4 -6 3 -14z"/>
<path d="M1541 2094 c0 -11 3 -14 6 -6 3 7 2 16 -1 19 -3 4 -6 -2 -5 -13z"/>
<path d="M1438 2043 c6 -2 18 -2 25 0 6 3 1 5 -13 5 -14 0 -19 -2 -12 -5z"/>
<path d="M1800 2026 c0 -2 8 -10 18 -17 15 -13 16 -12 3 4 -13 16 -21 21 -21
13z"/>
<path d="M1361 1924 c0 -11 3 -14 6 -6 3 7 2 16 -1 19 -3 4 -6 -2 -5 -13z"/>
<path d="M1979 1883 c-13 -16 -12 -17 4 -4 9 7 17 15 17 17 0 8 -8 3 -21 -13z"/>
<path d="M1901 1864 c0 -11 3 -14 6 -6 3 7 2 16 -1 19 -3 4 -6 -2 -5 -13z"/>
<path d="M966 1775 c-47 -17 -117 -83 -147 -139 l-22 -42 -66 4 c-61 4 -68 2
-94 -23 -33 -34 -38 -89 -8 -105 29 -15 31 -13 31 23 0 38 20 61 62 71 55 13
59 -1 21 -67 -73 -126 -140 -186 -224 -201 -81 -14 -149 27 -149 91 0 70 95
116 122 58 8 -19 8 -28 -2 -40 -10 -13 -9 -15 8 -15 30 0 45 32 31 64 -17 36
-61 52 -108 38 -107 -33 -113 -151 -10 -205 43 -23 127 -19 184 8 56 27 144
119 183 193 18 34 37 62 41 62 4 0 22 -15 40 -34 37 -38 53 -93 41 -137 l-9
-29 62 0 c58 0 60 1 39 16 -15 10 -22 25 -22 48 0 47 37 244 59 315 l19 61
-22 0 c-11 -1 -39 -7 -60 -15z m-5 -49 c-5 -12 -17 -63 -26 -112 -9 -49 -18
-94 -20 -101 -2 -6 -22 6 -45 29 l-40 41 26 46 c27 47 92 121 106 121 4 0 3
-11 -1 -24z"/>
<path d="M1460 1745 c-19 -7 -29 -14 -22 -14 6 -1 12 -11 12 -23 0 -47 -71
-323 -85 -334 -25 -19 -17 -24 40 -24 51 0 69 10 45 25 -15 9 -12 42 6 78 l17
31 23 -48 c28 -59 52 -86 73 -86 21 0 61 28 61 43 0 8 -3 8 -12 -1 -20 -20
-27 -14 -63 58 l-35 69 44 33 c24 18 52 38 62 45 16 10 13 12 -23 12 -31 1
-41 -2 -37 -12 3 -8 -19 -34 -52 -62 -38 -33 -55 -42 -51 -29 6 19 57 244 57
250 0 7 -25 2 -60 -11z"/>
<path d="M2068 1753 c7 -3 16 -2 19 1 4 3 -2 6 -13 5 -11 0 -14 -3 -6 -6z"/>
<path d="M1714 1696 c-10 -26 4 -48 28 -44 17 2 23 10 23 28 0 18 -6 26 -23
28 -13 2 -25 -3 -28 -12z"/>
<path d="M1875 1664 c-10 -23 -25 -40 -45 -47 -32 -12 -40 -27 -14 -27 9 0 14
-6 11 -13 -3 -8 -13 -53 -23 -101 -21 -98 -15 -119 32 -124 21 -2 36 4 54 23
26 27 22 32 -10 13 -35 -22 -39 5 -19 100 11 47 19 90 19 94 0 4 14 8 30 8 17
0 30 5 30 10 0 6 -11 10 -25 10 -27 0 -30 9 -16 58 13 44 -5 41 -24 -4z"/>
<path d="M2179 1663 c-13 -16 -12 -17 4 -4 9 7 17 15 17 17 0 8 -8 3 -21 -13z"/>
<path d="M1990 1666 c0 -2 8 -10 18 -17 15 -13 16 -12 3 4 -13 16 -21 21 -21
13z"/>
<path d="M1132 1612 c-41 -3 -43 -4 -28 -21 14 -16 14 -26 -9 -115 -14 -54
-25 -100 -25 -102 0 -2 -7 -4 -15 -4 -8 0 -15 -4 -15 -10 0 -6 27 -10 63 -10
55 1 60 2 44 14 -18 14 -18 17 -2 78 27 105 86 171 122 135 14 -14 14 -25 -3
-104 -9 -49 -15 -97 -11 -106 8 -21 46 -22 75 -1 28 20 29 39 1 24 -11 -7 -23
-10 -25 -7 -3 2 4 45 16 95 21 95 19 116 -11 132 -28 16 -54 12 -92 -14 l-36
-25 -3 22 c-3 19 -8 22 -46 19z"/>
<path d="M1676 1601 c-4 -5 0 -11 6 -14 10 -3 8 -27 -8 -107 -12 -57 -20 -110
-17 -117 8 -20 48 -16 74 8 l24 20 -22 -6 c-16 -4 -23 -2 -23 7 0 13 35 165
46 201 4 14 -1 17 -35 17 -22 0 -42 -4 -45 -9z"/>
<path d="M2080 1596 c0 -2 8 -10 18 -17 15 -13 16 -12 3 4 -13 16 -21 21 -21
13z"/>
<path d="M2150 1456 c0 -2 8 -10 18 -17 15 -13 16 -12 3 4 -13 16 -21 21 -21
13z"/>
<path d="M808 1295 c-27 -15 -33 -26 -133 -243 -24 -52 -41 -78 -46 -70 -4 7
-19 58 -33 112 -18 68 -23 103 -16 110 20 20 9 26 -49 26 -68 0 -82 -10 -47
-34 16 -10 30 -35 41 -73 52 -184 69 -233 81 -233 7 0 51 76 98 169 94 186
120 216 174 207 30 -4 33 -3 30 17 -2 17 -10 23 -38 24 -19 2 -47 -4 -62 -12z"/>
<path d="M2244 1268 l-19 -23 23 19 c21 18 27 26 19 26 -2 0 -12 -10 -23 -22z"/>
<path d="M315 1230 c10 -11 20 -20 23 -20 3 0 -3 9 -13 20 -10 11 -20 20 -23
20 -3 0 3 -9 13 -20z"/>
<path d="M1351 1215 c-11 -19 -32 -40 -46 -47 -28 -13 -33 -28 -9 -28 10 0 13
-6 9 -18 -6 -21 -35 -169 -35 -182 0 -13 30 -40 45 -40 8 0 27 11 42 25 l28
25 -27 -6 c-24 -5 -28 -3 -28 17 0 13 8 59 17 101 l16 78 34 0 c23 0 33 5 33
15 0 10 -10 15 -30 15 -30 0 -30 1 -24 40 4 22 4 40 1 40 -3 0 -14 -16 -26
-35z"/>
<path d="M182 1185 c0 -16 2 -22 5 -12 2 9 2 23 0 30 -3 6 -5 -1 -5 -18z"/>
<path d="M848 1154 c-27 -14 -48 -42 -48 -63 0 -18 40 -12 47 7 16 46 64 67
91 40 32 -32 -4 -76 -83 -98 -80 -22 -112 -97 -55 -128 25 -14 44 -10 113 26
4 2 7 -3 7 -11 0 -8 7 -18 16 -21 19 -7 75 22 82 42 3 11 0 11 -16 1 -12 -7
-24 -11 -27 -7 -3 3 1 36 10 72 20 87 19 119 -3 139 -23 21 -97 22 -134 1z
m81 -141 c-15 -70 -94 -102 -94 -38 0 25 7 33 45 52 25 12 48 22 51 22 4 1 3
-16 -2 -36z"/>
<path d="M1107 1159 c-22 -13 -39 -56 -32 -80 3 -10 28 -34 55 -53 55 -39 63
-66 29 -90 -28 -19 -58 -8 -86 33 l-22 33 -9 -34 c-12 -44 6 -58 74 -58 70 0
108 30 108 85 0 29 -6 42 -24 54 -14 9 -38 28 -55 43 -25 22 -28 30 -19 45 18
29 42 27 74 -7 l29 -31 7 26 c4 18 2 30 -7 36 -19 12 -100 11 -122 -2z"/>
<path d="M1483 1163 c-33 -4 -44 -18 -21 -25 21 -7 -19 -195 -45 -213 -20 -14
-17 -15 41 -15 58 0 62 1 48 16 -17 16 -16 26 10 121 15 54 50 91 68 73 15
-15 43 -12 50 5 18 48 -48 63 -83 19 l-21 -27 0 27 c0 14 -3 25 -7 24 -5 0
-23 -3 -40 -5z"/>
<path d="M1685 1139 c-19 -17 -35 -37 -35 -45 0 -24 28 -15 50 15 36 52 90 49
90 -5 0 -26 -28 -49 -75 -60 -53 -12 -83 -33 -94 -65 -22 -64 31 -98 94 -60
43 25 45 25 45 7 0 -32 50 -27 79 8 10 12 9 14 -10 9 -19 -5 -21 -3 -16 18 4
13 12 56 19 96 11 66 10 74 -7 93 -29 33 -96 28 -140 -11z m89 -121 c-11 -63
-104 -111 -104 -55 0 32 34 60 107 86 1 1 0 -14 -3 -31z"/>
<path d="M1950 1154 c-50 -34 -67 -74 -30 -74 11 0 26 12 35 29 28 54 90 48
83 -8 -2 -19 -13 -31 -43 -44 -93 -42 -110 -53 -119 -80 -7 -19 -7 -34 0 -45
14 -23 78 -27 105 -8 20 14 23 13 40 -7 17 -21 20 -21 45 -7 30 17 46 44 20
34 -20 -8 -20 8 -2 104 13 68 13 74 -6 97 -15 20 -29 25 -62 25 -23 0 -53 -7
-66 -16z m75 -136 c-7 -34 -46 -78 -69 -78 -25 0 -39 27 -26 50 9 16 70 53 98
59 2 1 1 -14 -3 -31z"/>
<path d="M220 1095 c13 -14 26 -25 28 -25 3 0 -5 11 -18 25 -13 14 -26 25 -28
25 -3 0 5 -11 18 -25z"/>
<path d="M331 994 c0 -11 3 -14 6 -6 3 7 2 16 -1 19 -3 4 -6 -2 -5 -13z"/>
<path d="M1248 773 c7 -3 16 -2 19 1 4 3 -2 6 -13 5 -11 0 -14 -3 -6 -6z"/>
<path d="M1099 703 l-34 -38 38 34 c34 33 42 41 34 41 -2 0 -19 -17 -38 -37z"/>
<path d="M400 596 c7 -7 13 -7 20 0 6 6 3 10 -10 10 -13 0 -16 -4 -10 -10z"/>
<path d="M1589 583 c-13 -16 -12 -17 4 -4 16 13 21 21 13 21 -2 0 -10 -8 -17
-17z"/>
<path d="M614 558 l-19 -23 23 19 c21 18 27 26 19 26 -2 0 -12 -10 -23 -22z"/>
<path d="M788 563 c7 -3 16 -2 19 1 4 3 -2 6 -13 5 -11 0 -14 -3 -6 -6z"/>
<path d="M1419 533 c-13 -16 -12 -17 4 -4 16 13 21 21 13 21 -2 0 -10 -8 -17
-17z"/>
<path d="M1295 370 c10 -11 20 -20 23 -20 3 0 -3 9 -13 20 -10 11 -20 20 -23
20 -3 0 3 -9 13 -20z"/>
<path d="M920 376 c0 -2 9 -6 20 -9 11 -3 18 -1 14 4 -5 9 -34 13 -34 5z"/>
<path d="M1200 366 c0 -2 8 -10 18 -17 15 -13 16 -12 3 4 -13 16 -21 21 -21
13z"/>
<path d="M1227 311 c-4 -17 -3 -21 5 -13 5 5 8 16 6 23 -3 8 -7 3 -11 -10z"/>
</g>
</svg>
