<?xml version="1.0" standalone="no"?>
<!DOCTYPE svg PUBLIC "-//W3C//DTD SVG 20010904//EN"
 "http://www.w3.org/TR/2001/REC-SVG-20010904/DTD/svg10.dtd">
<svg version="1.0" xmlns="http://www.w3.org/2000/svg"
 width="488.000000pt" height="511.000000pt" viewBox="0 0 488.000000 511.000000"
 preserveAspectRatio="xMidYMid meet">

<g transform="translate(0.000000,511.000000) scale(0.100000,-0.100000)"
fill="#000000" stroke="none">
<path d="M2185 4576 c-12 -28 43 -63 59 -38 3 5 -5 8 -16 8 -15 -1 -24 7 -28
24 -7 23 -8 23 -15 6z"/>
<path d="M2093 4554 c-9 -25 13 -40 26 -16 10 19 6 32 -11 32 -5 0 -11 -7 -15
-16z"/>
<path d="M1895 4490 c-3 -5 1 -10 9 -10 9 0 16 5 16 10 0 6 -4 10 -9 10 -6 0
-13 -4 -16 -10z"/>
<path d="M2260 4494 c-107 -9 -322 -47 -400 -70 -178 -53 -390 -138 -376 -151
3 -3 24 4 48 15 24 12 57 24 73 27 l30 6 -30 -25 c-16 -14 -39 -29 -50 -32
-26 -8 -117 -75 -111 -81 2 -3 17 4 33 15 176 121 423 211 697 253 111 17 173
20 316 18 98 -2 176 -7 174 -10 -5 -8 135 -27 154 -21 82 27 -372 72 -558 56z
m-65 -24 c-3 -5 -14 -10 -23 -10 -15 0 -15 2 -2 10 20 13 33 13 25 0z m-92
-17 c-7 -2 -19 -2 -25 0 -7 3 -2 5 12 5 14 0 19 -2 13 -5z m670 0 c-7 -2 -19
-2 -25 0 -7 3 -2 5 12 5 14 0 19 -2 13 -5z"/>
<path d="M2842 4439 c4 -12 61 -33 218 -80 78 -23 218 -89 305 -143 28 -17 62
-37 77 -45 15 -8 38 -25 50 -39 22 -23 21 -23 -39 7 -34 17 -70 31 -79 31 -10
0 -41 11 -71 25 -29 14 -59 23 -65 19 -6 -4 -8 -3 -5 3 4 6 -3 13 -14 16 -12
3 -18 3 -15 0 6 -7 -24 -32 -38 -33 -5 0 -1 9 9 20 10 11 15 23 12 27 -4 3
-18 -6 -31 -20 l-25 -27 32 -8 c20 -6 37 -5 45 1 9 7 11 6 7 -4 -6 -15 87 -67
135 -76 13 -2 27 -9 31 -14 3 -5 15 -11 27 -14 24 -4 62 -23 62 -31 0 -3 -5
-2 -12 2 -7 4 -8 3 -4 -4 4 -7 14 -12 21 -12 22 0 76 -36 67 -44 -4 -4 -2 -7
3 -5 25 6 88 -38 78 -54 -3 -6 -2 -7 4 -4 6 4 19 -1 29 -9 11 -9 12 -13 4 -9
-8 3 -2 -4 15 -17 16 -13 69 -63 118 -113 49 -49 86 -84 82 -76 -5 9 1 7 17
-5 14 -10 22 -21 17 -24 -4 -3 4 -19 19 -35 15 -17 39 -46 52 -65 13 -19 27
-37 30 -40 10 -9 128 -178 141 -202 6 -12 15 -25 18 -28 10 -8 51 -88 51 -99
0 -6 14 -40 30 -76 17 -36 30 -70 30 -76 0 -10 54 -181 71 -227 5 -13 14 -20
19 -17 6 3 10 -3 10 -15 0 -13 -4 -19 -11 -14 -8 4 -9 -3 -5 -22 35 -168 43
-488 15 -646 -8 -49 -11 -88 -7 -88 4 0 8 -9 8 -20 0 -11 -4 -20 -9 -20 -5 0
-15 -16 -21 -35 -9 -28 -9 -39 1 -51 16 -19 17 -17 34 50 62 236 57 732 -9
970 -29 103 -12 96 22 -9 57 -177 89 -419 78 -605 -6 -114 -43 -385 -56 -410
-4 -8 -11 -33 -15 -55 -4 -22 -10 -44 -14 -50 -4 -5 -14 -32 -21 -60 -13 -49
-70 -188 -111 -271 -25 -51 -151 -244 -205 -315 -92 -121 -305 -320 -421 -395
-65 -41 -236 -134 -248 -134 -16 0 11 21 73 58 38 23 84 56 103 73 39 38 25
31 -48 -23 -29 -21 -55 -38 -59 -38 -3 0 -18 -9 -33 -20 -28 -19 -147 -80
-231 -118 -93 -41 -267 -95 -312 -96 -25 -1 -44 -4 -42 -7 6 -10 -73 -18 -115
-12 -26 3 -32 2 -21 -6 11 -7 1 -10 -35 -9 -103 2 -361 -16 -327 -23 40 -8 53
-19 23 -19 -14 0 -20 -4 -15 -12 9 -15 388 -2 499 17 228 39 388 93 625 207
242 118 533 357 694 571 20 26 36 51 36 56 0 4 9 16 20 26 26 24 125 187 178
295 75 152 106 253 143 465 6 33 14 74 20 91 5 17 8 44 8 60 -1 19 -3 23 -6
10 -4 -14 -7 -16 -13 -6 -5 9 -10 -2 -14 -31 -23 -169 -37 -251 -45 -266 -5
-10 -20 -55 -35 -99 -50 -158 -145 -358 -233 -491 -44 -66 -204 -252 -277
-321 -31 -29 -59 -59 -63 -65 -9 -14 -139 -112 -188 -142 -16 -10 -39 -26 -50
-36 -11 -9 -31 -20 -45 -24 -14 -4 -32 -13 -40 -20 -14 -11 -60 -32 -50 -22 3
3 50 39 105 80 264 199 419 349 510 493 11 17 42 65 69 105 92 139 246 476
246 539 0 11 9 52 19 92 33 122 43 241 38 438 -6 248 -27 395 -79 545 -11 33
-30 87 -41 120 -23 66 -119 265 -147 305 -24 35 -61 120 -51 120 11 0 80 -103
117 -175 11 -22 30 -57 42 -78 12 -21 22 -42 22 -48 0 -5 18 -46 39 -92 22
-45 51 -122 66 -172 14 -49 31 -100 36 -113 5 -13 9 -33 9 -46 0 -12 3 -25 6
-29 3 -3 8 -34 10 -69 2 -35 7 -79 10 -98 6 -34 6 -35 16 -10 5 14 6 41 2 60
-3 19 -8 46 -9 60 -4 50 -48 256 -60 285 -7 17 -30 73 -51 125 -43 110 -97
222 -128 265 -12 17 -28 44 -36 60 -25 52 -101 146 -238 294 -41 45 -48 33
-10 -21 10 -14 18 -29 18 -32 0 -3 16 -30 36 -58 36 -53 36 -53 4 -20 -17 19
-34 32 -37 29 -3 -3 7 -18 22 -34 27 -29 100 -162 92 -169 -2 -2 -21 23 -41
56 -21 34 -46 66 -57 73 -10 6 -19 17 -19 23 0 10 -123 161 -149 184 -3 3 -22
23 -41 45 -31 35 -32 37 -8 22 26 -16 126 -113 151 -146 6 -9 21 -23 32 -31
11 -8 3 5 -17 30 -35 43 -71 114 -62 122 2 3 -7 15 -21 28 -14 13 -25 20 -25
15 0 -5 -18 9 -40 30 -42 41 -56 71 -17 39 59 -50 -36 46 -122 123 -124 111
-272 208 -450 296 -141 70 -194 90 -331 122 -36 9 -73 19 -84 22 -12 3 -17 1
-14 -8z m423 -277 c-3 -3 -11 0 -18 7 -9 10 -8 11 6 5 10 -3 15 -9 12 -12z
m410 -190 c-6 -6 -45 28 -45 39 0 5 11 -1 25 -13 14 -12 23 -24 20 -26z m54
-2 c15 -23 15 -24 -1 -12 -9 8 -23 10 -29 6 -8 -5 -9 -3 -4 6 4 7 2 16 -6 22
-11 7 -10 8 5 6 10 -2 26 -14 35 -28z m202 -187 c13 -16 12 -17 -3 -4 -17 13
-22 21 -14 21 2 0 10 -8 17 -17z m9 -124 c0 -6 -4 -7 -10 -4 -5 3 -10 11 -10
16 0 6 5 7 10 4 6 -3 10 -11 10 -16z m249 -251 c8 -18 27 -53 43 -77 33 -53
38 -84 10 -58 -10 10 -22 14 -26 10 -4 -4 -4 0 -1 9 3 8 -7 45 -24 82 -16 36
-27 66 -23 66 4 0 14 -15 21 -32z m198 -690 c-2 -13 -4 -5 -4 17 -1 22 1 32 4
23 2 -10 2 -28 0 -40z m0 -650 c-3 -8 -6 -5 -6 6 -1 11 2 17 5 13 3 -3 4 -12
1 -19z m-1047 -1473 c-33 -19 -50 -18 -26 0 11 8 27 15 35 15 10 -1 7 -6 -9
-15z"/>
<path d="M3108 4438 c6 -6 18 -8 28 -6 14 3 12 5 -9 10 -19 3 -25 2 -19 -4z"/>
<path d="M1387 4393 c-4 -3 -7 -13 -7 -22 0 -12 3 -11 14 4 8 11 19 16 30 12
10 -4 15 -3 11 3 -7 11 -38 13 -48 3z"/>
<path d="M2242 4350 c-18 -4 -35 -9 -37 -11 -3 -4 466 -2 475 2 40 15 -373 24
-438 9z"/>
<path d="M1106 4303 c-6 -14 -5 -15 5 -6 7 7 10 15 7 18 -3 3 -9 -2 -12 -12z"/>
<path d="M1185 4310 c-3 -5 -1 -10 4 -10 6 0 11 5 11 10 0 6 -2 10 -4 10 -3 0
-8 -4 -11 -10z"/>
<path d="M2346 4262 c-2 -4 4 -8 15 -8 10 0 19 4 19 8 0 4 -6 8 -14 8 -8 0
-17 -4 -20 -8z"/>
<path d="M1396 4239 c-99 -53 -199 -119 -286 -190 -167 -136 -357 -335 -338
-354 5 -5 105 97 128 132 36 52 158 170 220 212 19 13 37 27 40 31 9 12 203
137 243 156 20 10 37 21 37 26 0 11 0 11 -44 -13z"/>
<path d="M1645 4223 c-33 -13 -95 -38 -138 -53 -44 -16 -90 -36 -104 -45 -29
-19 -42 -13 -22 11 13 16 12 16 -11 4 -53 -28 -154 -115 -138 -118 9 -2 31 4
48 13 36 19 55 11 26 -11 -29 -21 -8 -17 22 5 51 35 242 139 278 151 54 18 85
36 76 45 -4 4 3 4 16 1 13 -4 22 -3 22 3 0 20 -17 19 -75 -6z"/>
<path d="M1573 4143 c-40 -20 -71 -38 -69 -40 2 -3 39 14 82 36 44 22 75 40
69 40 -5 1 -43 -16 -82 -36z"/>
<path d="M3103 4154 c21 -26 22 -40 1 -48 -23 -9 -36 3 -31 30 2 13 0 21 -4
18 -5 -3 -9 -16 -9 -29 0 -18 7 -26 25 -31 57 -14 75 33 25 65 -25 15 -25 15
-7 -5z"/>
<path d="M1455 4084 c-16 -8 -37 -22 -45 -30 -8 -8 6 -3 33 11 26 15 47 29 47
31 0 6 -2 5 -35 -12z"/>
<path d="M3106 4064 c-4 -10 -2 -22 3 -27 14 -14 43 0 39 20 -4 24 -34 28 -42
7z"/>
<path d="M1111 3924 c-17 -14 -31 -32 -31 -40 0 -12 -12 -18 -31 -16 -12 2
-179 -149 -179 -160 0 -6 11 2 25 18 28 33 40 28 25 -11 l-10 -27 37 32 c42
37 134 119 203 181 25 22 35 35 22 29 -27 -13 -45 -4 -22 10 9 6 10 10 3 10
-6 0 -25 -12 -42 -26z"/>
<path d="M1199 3913 c-13 -16 -12 -17 4 -4 9 7 17 15 17 17 0 8 -8 3 -21 -13z"/>
<path d="M1165 3890 c-3 -5 -1 -10 4 -10 6 0 11 5 11 10 0 6 -2 10 -4 10 -3 0
-8 -4 -11 -10z"/>
<path d="M1109 3839 l-24 -20 28 17 c15 9 27 18 27 20 0 8 -8 4 -31 -17z"/>
<path d="M1010 3755 c-20 -24 -6 -28 15 -5 10 11 13 20 8 20 -6 0 -16 -7 -23
-15z"/>
<path d="M4050 3755 c0 -14 48 -52 53 -44 1 2 -10 16 -25 31 -18 17 -28 22
-28 13z"/>
<path d="M4151 3754 c0 -11 3 -14 6 -6 3 7 2 16 -1 19 -3 4 -6 -2 -5 -13z"/>
<path d="M717 3635 c-20 -24 -37 -48 -37 -52 0 -5 -13 -24 -28 -43 -16 -19
-63 -105 -105 -190 -82 -168 -162 -405 -152 -450 4 -16 3 -20 -3 -12 -13 20
-24 -26 -11 -49 13 -25 11 -49 -3 -45 -7 1 -10 1 -5 -1 4 -3 7 -12 8 -21 1
-18 17 27 44 123 26 94 75 227 105 286 125 245 171 318 268 430 23 27 42 55
42 62 0 14 -37 -25 -86 -89 -18 -24 -41 -51 -49 -61 -9 -10 -31 -40 -49 -67
-17 -27 -37 -51 -44 -54 -18 -6 -14 22 7 49 10 13 28 44 41 69 12 25 40 69 63
98 49 65 45 78 -6 17z"/>
<path d="M1068 3633 c6 -2 12 -10 12 -17 0 -6 9 -12 20 -12 28 0 25 15 -6 26
-25 10 -50 13 -26 3z"/>
<path d="M875 3600 c-19 -20 -31 -26 -36 -19 -4 8 -11 3 -20 -12 -11 -21 -11
-23 3 -11 12 10 17 10 20 1 2 -7 19 7 37 30 38 48 37 53 -4 11z"/>
<path d="M1044 3566 c0 -13 4 -22 9 -19 10 6 9 31 -2 37 -5 3 -8 -5 -7 -18z"/>
<path d="M4277 3534 c-14 -14 -7 -35 11 -32 9 2 17 10 17 17 0 16 -18 25 -28
15z"/>
<path d="M791 3493 c-31 -37 -38 -53 -23 -53 7 1 65 90 57 90 -2 0 -17 -17
-34 -37z"/>
<path d="M725 3380 c-14 -27 -23 -50 -21 -50 5 0 40 59 49 83 13 35 -3 16 -28
-33z"/>
<path d="M686 3305 c-9 -26 -7 -32 5 -12 6 10 9 21 6 23 -2 3 -7 -2 -11 -11z"/>
<path d="M623 3214 c-23 -35 -38 -62 -32 -59 5 4 9 1 9 -4 0 -6 -7 -11 -15
-11 -9 0 -12 -6 -8 -17 4 -10 2 -14 -4 -10 -14 9 -37 -48 -27 -64 4 -7 3 -10
-3 -6 -6 4 -25 -40 -47 -106 -150 -458 -93 -1064 140 -1499 10 -18 11 -28 4
-28 -6 0 -16 11 -22 25 -12 26 -23 31 -33 16 -12 -20 100 -195 118 -184 6 3 7
1 3 -5 -9 -14 39 -79 64 -87 10 -3 17 -13 16 -23 0 -9 4 -17 11 -17 6 0 15 -4
20 -9 5 -5 2 -6 -6 -1 -9 5 -12 3 -9 -6 3 -8 12 -13 21 -13 9 1 14 -2 11 -7
-2 -5 29 -43 71 -86 42 -43 73 -72 69 -64 -4 9 -2 12 7 9 8 -3 13 -11 11 -17
-1 -7 1 -10 6 -7 5 3 33 -15 61 -39 29 -25 55 -45 58 -45 9 0 -26 40 -75 87
-25 24 -42 43 -39 43 4 0 -3 10 -16 22 -12 13 -25 22 -30 20 -4 -1 -6 4 -5 10
2 7 -2 12 -9 11 -7 -2 -10 4 -7 12 4 9 0 15 -9 15 -9 0 -18 9 -22 19 -3 11
-17 27 -31 36 -13 9 -22 20 -19 24 2 5 -2 14 -10 21 -8 7 -15 17 -15 22 0 6
-12 25 -27 43 -69 82 -95 117 -97 129 -1 7 -10 21 -19 31 -22 22 -50 75 -43
82 10 10 -15 44 -27 37 -7 -4 -9 -4 -6 0 7 8 -16 89 -49 171 -34 85 -72 209
-72 235 0 14 -12 66 -26 115 -24 85 -25 102 -24 298 1 225 24 404 70 555 22
72 49 102 36 40 -19 -92 -45 -296 -51 -398 -8 -155 17 -444 50 -565 14 -49 29
-108 35 -130 5 -22 17 -49 26 -60 15 -19 15 -19 9 5 -67 260 -95 464 -95 690
0 162 26 405 48 447 6 10 15 45 22 78 7 33 25 95 41 138 16 43 29 87 29 97 0
10 6 20 13 23 8 3 9 8 2 15 -7 7 -23 -9 -52 -54z m291 -2193 c-2 -3 -12 3 -22
13 -16 17 -16 18 5 5 12 -7 20 -15 17 -18z m56 -51 c0 -15 -5 -12 -26 11 -19
22 -19 22 4 10 12 -6 22 -16 22 -21z"/>
<path d="M1586 3013 c-6 -14 -5 -15 5 -6 7 7 10 15 7 18 -3 3 -9 -2 -12 -12z"/>
<path d="M4241 3005 c2 -11 0 -26 -5 -34 -6 -9 -5 -12 5 -9 19 6 24 37 9 52
-9 8 -11 6 -9 -9z"/>
<path d="M4540 2943 c5 -2 8 -9 4 -14 -3 -5 0 -9 6 -9 15 0 7 23 -8 26 -7 1
-8 0 -2 -3z"/>
<path d="M4244 2895 c-18 -13 -17 -14 11 -12 24 2 30 -2 30 -18 0 -12 -9 -22
-25 -27 -23 -6 -23 -7 5 -5 36 2 46 34 17 60 -16 15 -21 15 -38 2z"/>
<path d="M1821 2893 c-1 -7 -12 -13 -26 -13 -14 0 -25 -4 -25 -10 0 -5 -6 -10
-14 -10 -8 0 -18 -5 -22 -11 -4 -8 1 -9 17 -3 13 4 38 10 55 13 26 5 30 9 23
26 -4 11 -8 14 -8 8z"/>
<path d="M727 2883 c-11 -10 -8 -20 7 -26 10 -4 14 0 13 14 -1 20 -9 24 -20
12z"/>
<path d="M1666 2851 c-4 -5 3 -7 14 -4 23 6 26 13 6 13 -8 0 -17 -4 -20 -9z"/>
<path d="M1506 2823 c-6 -14 -5 -15 5 -6 7 7 10 15 7 18 -3 3 -9 -2 -12 -12z"/>
<path d="M1700 2830 c-9 -6 -10 -10 -3 -10 6 0 15 5 18 10 8 12 4 12 -15 0z"/>
<path d="M1486 2783 c-6 -14 -5 -15 5 -6 7 7 10 15 7 18 -3 3 -9 -2 -12 -12z"/>
<path d="M344 2698 c-13 -41 -20 -401 -9 -446 l12 -45 6 96 c4 53 4 154 0 226
-5 112 -4 132 10 146 10 9 17 22 17 29 0 20 -29 15 -36 -6z"/>
<path d="M3226 2691 c-4 -5 3 -7 14 -4 23 6 26 13 6 13 -8 0 -17 -4 -20 -9z"/>
<path d="M3256 2663 c-6 -14 -5 -15 5 -6 7 7 10 15 7 18 -3 3 -9 -2 -12 -12z"/>
<path d="M362 2640 c0 -14 2 -19 5 -12 2 6 2 18 0 25 -3 6 -5 1 -5 -13z"/>
<path d="M2253 2595 c4 -22 1 -38 -6 -42 -7 -5 -18 -21 -25 -37 -12 -26 -11
-28 2 -17 8 7 18 21 21 31 3 10 16 21 28 25 13 4 17 8 10 12 -7 2 -13 18 -13
34 0 16 -5 29 -11 29 -8 0 -10 -12 -6 -35z"/>
<path d="M2725 2620 c-3 -5 -3 -22 1 -37 6 -27 6 -27 -9 -8 -16 19 -16 17 -16
-30 0 -46 1 -48 14 -31 8 11 15 24 15 29 0 5 6 7 14 4 8 -3 17 1 20 9 8 20 43
18 55 -3 6 -10 10 -13 11 -8 0 23 -19 37 -46 33 -26 -3 -29 -1 -26 25 2 19 -1
27 -12 27 -8 0 -17 -4 -21 -10z"/>
<path d="M3700 2592 c0 -37 -51 -137 -70 -137 -10 0 -17 15 -21 50 -6 44 -7
41 -6 -22 1 -40 4 -73 8 -73 8 0 99 97 100 107 7 62 6 103 -1 103 -6 0 -10
-13 -10 -28z"/>
<path d="M1506 2593 c-6 -14 -5 -15 5 -6 7 7 10 15 7 18 -3 3 -9 -2 -12 -12z"/>
<path d="M3191 2576 c-10 -12 -8 -13 8 -9 12 3 18 9 15 14 -7 12 -10 11 -23
-5z"/>
<path d="M4064 2574 c-19 -15 -19 -15 1 -6 11 5 27 12 35 15 13 5 13 6 -1 6
-8 1 -24 -6 -35 -15z"/>
<path d="M2300 2576 c0 -2 11 -6 25 -8 13 -3 22 -1 19 3 -5 9 -44 13 -44 5z"/>
<path d="M3560 2576 c0 -2 9 -6 20 -9 11 -3 18 -1 14 4 -5 9 -34 13 -34 5z"/>
<path d="M4123 2568 c4 -11 -1 -18 -14 -21 -10 -3 -23 -18 -29 -34 -6 -15 -17
-41 -24 -57 -32 -68 26 -78 86 -16 21 23 38 49 38 58 -1 14 -5 12 -21 -8 -49
-60 -60 -70 -74 -70 -28 0 -30 32 -4 51 45 35 59 52 59 75 0 13 -5 26 -12 30
-7 5 -9 2 -5 -8z"/>
<path d="M620 2562 c0 -4 13 -13 29 -19 28 -10 29 -10 18 8 -11 18 -47 27 -47
11z"/>
<path d="M1486 2553 c-6 -14 -5 -15 5 -6 7 7 10 15 7 18 -3 3 -9 -2 -12 -12z"/>
<path d="M4026 2533 c-6 -14 -5 -15 5 -6 7 7 10 15 7 18 -3 3 -9 -2 -12 -12z"/>
<path d="M3222 2520 c0 -14 2 -19 5 -12 2 6 2 18 0 25 -3 6 -5 1 -5 -13z"/>
<path d="M2742 2506 c-7 -15 -12 -39 -11 -54 1 -22 4 -19 15 18 16 52 14 75
-4 36z"/>
<path d="M2794 2499 c-10 -20 -14 -48 -12 -75 2 -24 -1 -46 -7 -49 -5 -2 4 -3
20 -2 24 2 37 12 63 51 31 46 40 76 25 76 -5 0 -19 -23 -32 -50 -40 -82 -77
-58 -48 31 18 56 15 63 -9 18z"/>
<path d="M3258 2489 c-21 -26 -29 -31 -36 -21 -7 10 -11 8 -15 -9 -4 -13 -1
-26 5 -30 7 -4 1 -9 -13 -12 -22 -4 -22 -4 -2 -6 24 -1 98 80 91 100 -2 6 -16
-4 -30 -22z"/>
<path d="M4004 2476 c-3 -19 -2 -42 3 -51 7 -12 10 -2 10 34 0 28 -2 51 -3 51
-2 0 -6 -15 -10 -34z"/>
<path d="M2393 2479 c-6 -8 -18 -29 -27 -47 -22 -43 -49 -39 -57 8 l-6 35 -2
-37 c0 -20 4 -40 10 -44 8 -4 7 -9 -2 -15 -11 -6 -9 -9 7 -9 21 0 49 25 79 72
18 30 17 60 -2 37z"/>
<path d="M4550 2346 c0 -132 11 -183 24 -108 8 47 8 190 0 220 -15 54 -24 12
-24 -112z"/>
<path d="M1445 2459 c-4 -6 -5 -12 -2 -15 2 -3 7 2 10 11 7 17 1 20 -8 4z"/>
<path d="M1923 2448 c-2 -5 59 -8 136 -8 77 0 142 3 144 8 3 4 -58 7 -135 7
-77 0 -142 -3 -145 -7z"/>
<path d="M4606 2423 c-6 -14 -5 -15 5 -6 7 7 10 15 7 18 -3 3 -9 -2 -12 -12z"/>
<path d="M1427 2423 c-4 -3 -7 -11 -7 -17 0 -6 5 -5 12 2 6 6 9 14 7 17 -3 3
-9 2 -12 -2z"/>
<path d="M2740 2411 c0 -6 4 -13 10 -16 6 -3 7 1 4 9 -7 18 -14 21 -14 7z"/>
<path d="M1407 2383 c-4 -3 -7 -11 -7 -17 0 -6 5 -5 12 2 6 6 9 14 7 17 -3 3
-9 2 -12 -2z"/>
<path d="M4306 2379 c6 -11 44 -12 44 -1 0 4 -11 8 -25 8 -14 1 -22 -2 -19 -7z"/>
<path d="M217 2303 c-14 -13 -6 -33 12 -33 25 0 38 20 20 31 -17 11 -24 11
-32 2z"/>
<path d="M566 2284 c-19 -18 -20 -30 -4 -40 7 -5 8 -3 4 5 -5 7 0 21 10 32 20
23 12 26 -10 3z"/>
<path d="M4642 2278 c-17 -17 -15 -32 6 -51 21 -19 32 -22 32 -7 0 6 -6 10
-14 10 -24 0 -29 20 -10 41 18 20 6 27 -14 7z"/>
<path d="M1179 2203 l-24 -26 33 23 c33 25 38 30 24 30 -5 0 -19 -12 -33 -27z"/>
<path d="M3377 2223 c-4 -3 -6 -22 -6 -42 l1 -36 8 40 c8 42 8 49 -3 38z"/>
<path d="M3624 2222 c3 -5 -1 -20 -8 -34 -12 -22 -11 -26 5 -37 13 -8 19 -23
19 -50 0 -39 -18 -59 -37 -40 -5 5 -9 1 -9 -11 0 -12 7 -20 18 -20 9 0 20 -4
23 -10 9 -14 140 -13 168 2 12 6 28 14 36 18 8 3 16 13 19 21 2 9 -1 8 -11 -3
-8 -10 -17 -18 -21 -18 -3 0 -6 8 -6 18 -1 16 -1 16 -11 0 -8 -15 -24 -18 -84
-18 -41 0 -76 4 -80 9 -3 5 6 18 19 28 22 18 23 23 15 72 -4 29 -13 59 -20 67
-12 15 -44 20 -35 6z m32 -59 c-7 -17 -8 -17 -17 0 -12 21 -2 44 13 29 6 -6 8
-19 4 -29z"/>
<path d="M3400 2189 l0 -32 20 26 c11 14 20 28 20 31 0 3 -9 6 -20 6 -16 0
-20 -7 -20 -31z"/>
<path d="M357 2196 c-4 -10 -7 -32 -6 -49 1 -31 1 -31 10 7 10 43 7 72 -4 42z"/>
<path d="M3825 2191 c-3 -2 -4 -27 -4 -55 l2 -51 6 47 c8 52 17 69 27 45 5
-13 9 -14 25 -4 10 6 19 14 19 17 0 7 -69 8 -75 1z"/>
<path d="M3926 2177 c3 -10 9 -15 12 -12 3 3 0 11 -7 18 -10 9 -11 8 -5 -6z"/>
<path d="M1031 2136 c-30 -7 -57 -18 -59 -25 -3 -10 0 -11 16 -2 11 6 29 11
39 11 10 1 32 7 48 15 36 16 28 16 -44 1z"/>
<path d="M3900 2126 c-9 -11 -9 -19 0 -33 11 -17 11 -17 6 1 -4 10 -1 25 5 32
6 8 9 14 6 14 -2 0 -10 -7 -17 -14z"/>
<path d="M3860 2115 c0 -8 4 -15 10 -15 5 0 7 7 4 15 -4 8 -8 15 -10 15 -2 0
-4 -7 -4 -15z"/>
<path d="M4590 2118 c0 -4 9 -8 20 -8 11 0 20 4 20 8 0 4 -9 8 -20 8 -11 0
-20 -4 -20 -8z"/>
<path d="M371 2104 c0 -11 3 -14 6 -6 3 7 2 16 -1 19 -3 4 -6 -2 -5 -13z"/>
<path d="M3362 2100 c0 -14 2 -19 5 -12 2 6 2 18 0 25 -3 6 -5 1 -5 -13z"/>
<path d="M3382 2083 c-1 -14 -7 -21 -16 -17 -15 6 -30 -36 -17 -49 4 -4 52 -6
106 -5 74 2 100 7 103 17 4 11 -5 13 -43 8 -26 -4 -64 -4 -85 -1 -34 6 -39 10
-43 38 -2 19 -4 23 -5 9z"/>
<path d="M3916 2050 c4 -14 8 -33 8 -42 0 -20 11 -24 21 -8 3 6 31 10 61 10
30 0 54 4 54 9 0 15 -31 21 -77 16 -35 -4 -45 0 -59 18 l-16 22 8 -25z"/>
<path d="M387 2015 c4 -25 3 -36 -4 -32 -8 5 -8 -6 -1 -35 13 -58 20 -62 14
-8 l-6 45 14 -40 c19 -53 20 -24 2 44 -18 64 -27 78 -19 26z"/>
<path d="M1245 2029 c-4 -6 -5 -12 -2 -15 2 -3 7 2 10 11 7 17 1 20 -8 4z"/>
<path d="M2479 1971 c11 -7 11 -15 0 -47 -8 -22 -19 -43 -26 -47 -9 -5 -1 -18
25 -41 20 -19 42 -35 47 -36 6 -1 17 -8 27 -16 18 -17 69 -15 75 3 3 8 -6 10
-30 6 l-34 -5 5 50 c2 28 2 62 -2 76 -6 24 -61 66 -87 66 -12 0 -12 -2 0 -9z
m56 -51 c9 -14 10 -69 2 -77 -13 -12 -47 30 -47 59 0 21 5 28 19 28 11 0 23
-5 26 -10z"/>
<path d="M1432 1964 c25 -7 32 -44 18 -94 -6 -23 -9 -44 -7 -47 3 -2 11 21 18
52 14 62 6 89 -27 92 -16 2 -16 1 -2 -3z"/>
<path d="M2104 1956 c-3 -8 -4 -25 -1 -38 3 -17 5 -15 6 10 1 37 18 42 31 10
5 -13 9 -18 9 -11 2 37 -33 60 -45 29z"/>
<path d="M1206 1933 c-6 -14 -5 -15 5 -6 7 7 10 15 7 18 -3 3 -9 -2 -12 -12z"/>
<path d="M2816 1928 c-3 -13 -7 -63 -9 -113 -4 -64 -2 -78 3 -50 5 22 9 63 10
90 0 61 13 87 28 59 17 -33 23 -74 14 -92 -5 -9 -12 -42 -15 -72 -5 -56 -1
-47 23 55 14 61 36 97 58 94 31 -3 35 1 21 18 -13 15 -11 16 10 10 23 -6 23
-5 8 11 -16 15 -19 14 -52 -18 -38 -37 -38 -37 -66 13 -13 24 -28 21 -33 -5z"/>
<path d="M1734 1925 c-17 -13 -16 -13 14 -2 25 9 37 9 52 -1 11 -7 20 -8 20
-3 0 23 -58 27 -86 6z"/>
<path d="M1175 1875 c-8 -21 -13 -40 -11 -43 3 -2 12 13 21 33 8 21 13 40 11
43 -3 2 -12 -13 -21 -33z"/>
<path d="M1758 1899 c-26 -15 -38 -43 -27 -60 9 -12 10 -12 6 1 -2 8 0 23 5
33 11 21 58 23 58 2 0 -8 -4 -15 -10 -15 -5 0 -10 -4 -10 -10 0 -16 27 -12 45
6 9 9 15 23 13 32 -4 19 -55 26 -80 11z"/>
<path d="M2141 1894 c0 -11 3 -14 6 -6 3 7 2 16 -1 19 -3 4 -6 -2 -5 -13z"/>
<path d="M4331 1888 c0 -9 -4 -25 -7 -35 -5 -17 -5 -17 6 0 6 10 9 25 7 35 -4
15 -5 15 -6 0z"/>
<path d="M400 1885 c0 -53 142 -413 170 -430 4 -3 13 1 19 8 10 13 0 38 -57
142 -6 11 -27 63 -47 115 -20 52 -43 99 -51 103 -8 4 -14 19 -14 32 0 13 -4
27 -10 30 -5 3 -10 3 -10 0z"/>
<path d="M4321 1790 c-44 -130 -46 -137 -32 -124 15 14 73 184 68 203 -1 9
-18 -27 -36 -79z"/>
<path d="M2091 1844 c0 -11 3 -14 6 -6 3 7 2 16 -1 19 -3 4 -6 -2 -5 -13z"/>
<path d="M1764 1811 c11 -11 23 -21 28 -21 14 0 -1 19 -25 31 -22 12 -22 12
-3 -10z"/>
<path d="M1431 1803 c0 -6 -4 -20 -7 -30 -5 -14 -4 -15 5 -7 7 7 11 20 8 30
-3 11 -5 14 -6 7z"/>
<path d="M1136 1785 c-9 -26 -7 -32 5 -12 6 10 9 21 6 23 -2 3 -7 -2 -11 -11z"/>
<path d="M1750 1776 c14 -13 27 -22 29 -20 7 6 -31 44 -43 44 -6 0 1 -11 14
-24z"/>
<path d="M4301 1784 c0 -11 3 -14 6 -6 3 7 2 16 -1 19 -3 4 -6 -2 -5 -13z"/>
<path d="M2524 1756 c-8 -34 -49 -70 -70 -62 -14 5 -15 4 -4 -9 16 -19 50 -16
60 5 4 8 15 29 24 47 10 19 13 34 6 38 -5 3 -12 -5 -16 -19z"/>
<path d="M617 1728 c24 -103 193 -421 289 -547 63 -81 284 -305 319 -323 11
-5 -30 39 -91 98 -138 136 -219 245 -382 514 -38 63 -122 248 -122 269 0 6 -4
11 -9 11 -5 0 -7 -10 -4 -22z"/>
<path d="M1412 1730 c0 -14 2 -19 5 -12 2 6 2 18 0 25 -3 6 -5 1 -5 -13z"/>
<path d="M1821 1723 c0 -12 -4 -30 -7 -40 -5 -14 -4 -15 5 -7 7 6 11 24 8 40
-3 21 -4 23 -6 7z"/>
<path d="M1106 1715 c-9 -26 -7 -32 5 -12 6 10 9 21 6 23 -2 3 -7 -2 -11 -11z"/>
<path d="M1662 1699 c3 -31 6 -34 38 -36 19 -1 26 1 15 4 -29 8 -47 24 -41 39
3 7 1 16 -5 20 -7 4 -9 -6 -7 -27z"/>
<path d="M2400 1680 c0 -5 5 -10 11 -10 5 0 7 5 4 10 -3 6 -8 10 -11 10 -2 0
-4 -4 -4 -10z"/>
<path d="M2805 1680 c3 -5 8 -10 11 -10 2 0 4 5 4 10 0 6 -5 10 -11 10 -5 0
-7 -4 -4 -10z"/>
<path d="M1681 1639 c13 -8 88 -14 78 -5 -2 2 -24 6 -48 9 -29 4 -40 2 -30 -4z"/>
<path d="M2935 1640 c-19 -8 -19 -9 3 -9 12 -1 22 4 22 9 0 6 -1 10 -2 9 -2 0
-12 -4 -23 -9z"/>
<path d="M4238 1564 c-20 -41 -32 -71 -27 -68 12 7 73 134 67 139 -2 2 -20
-30 -40 -71z"/>
<path d="M4004 1465 c-3 -8 -4 -20 -2 -27 3 -7 7 -1 10 15 6 29 1 36 -8 12z"/>
<path d="M4063 1448 c-2 -16 1 -18 10 -9 7 7 8 14 1 21 -6 6 -10 2 -11 -12z"/>
<path d="M4144 1389 c-14 -22 -24 -43 -22 -44 2 -2 16 16 31 40 33 56 26 59
-9 4z"/>
<path d="M3928 1383 c7 -3 16 -2 19 1 4 3 -2 6 -13 5 -11 0 -14 -3 -6 -6z"/>
<path d="M860 1350 c0 -5 5 -10 11 -10 5 0 7 5 4 10 -3 6 -8 10 -11 10 -2 0
-4 -4 -4 -10z"/>
<path d="M3966 1303 c-6 -14 -5 -15 5 -6 7 7 10 15 7 18 -3 3 -9 -2 -12 -12z"/>
<path d="M4071 1274 c-37 -53 -37 -68 0 -21 23 29 43 67 36 67 -2 0 -18 -21
-36 -46z"/>
<path d="M957 1293 c-12 -12 -7 -22 8 -17 8 4 15 10 15 15 0 11 -14 12 -23 2z"/>
<path d="M990 1240 c-8 -5 -12 -12 -9 -15 4 -3 12 1 19 10 14 17 11 19 -10 5z"/>
<path d="M3995 1174 c-45 -54 -42 -65 4 -15 23 25 41 46 41 48 0 12 -19 -2
-45 -33z"/>
<path d="M3936 1093 c-6 -14 -5 -15 5 -6 7 7 10 15 7 18 -3 3 -9 -2 -12 -12z"/>
<path d="M4170 1058 c0 -9 5 -20 11 -23 17 -11 18 -2 3 19 -12 17 -14 17 -14
4z"/>
<path d="M4232 1050 c-7 -11 -8 -20 -3 -20 9 0 24 30 18 36 -1 2 -8 -6 -15
-16z"/>
<path d="M3821 977 l-25 -32 32 29 c33 31 37 36 25 35 -5 0 -19 -14 -32 -32z"/>
<path d="M4097 993 c-11 -11 -8 -48 5 -61 15 -15 28 -16 28 -2 0 6 -7 10 -15
10 -8 0 -15 9 -15 20 0 19 10 24 38 21 6 -1 12 3 12 9 0 11 -43 14 -53 3z"/>
<path d="M3749 943 c-13 -16 -12 -17 4 -4 9 7 17 15 17 17 0 8 -8 3 -21 -13z"/>
<path d="M3750 914 c-17 -15 -29 -29 -26 -31 3 -3 20 9 38 26 40 38 32 41 -12
5z"/>
<path d="M1040 886 c0 -2 8 -10 18 -17 15 -13 16 -12 3 4 -13 16 -21 21 -21
13z"/>
<path d="M3990 870 c-6 -11 -8 -25 -5 -30 12 -19 20 -10 20 20 0 36 -1 36 -15
10z"/>
<path d="M4048 864 c3 -17 8 -22 15 -15 11 11 3 41 -11 41 -5 0 -7 -12 -4 -26z"/>
<path d="M4113 873 c-7 -2 -13 -11 -13 -18 0 -8 6 -17 13 -21 6 -4 9 -4 5 1
-4 4 -3 16 3 26 5 11 8 19 7 18 -2 0 -9 -3 -15 -6z"/>
<path d="M4166 833 c-6 -14 -5 -15 5 -6 7 7 10 15 7 18 -3 3 -9 -2 -12 -12z"/>
<path d="M1104 831 c7 -11 46 -35 46 -28 0 3 -12 12 -26 22 -15 9 -23 12 -20
6z"/>
<path d="M1276 814 c17 -16 57 -48 88 -72 32 -24 56 -48 53 -55 -11 -33 342
-183 473 -201 l45 -6 -39 15 c-21 8 -42 12 -47 9 -5 -3 -9 0 -9 5 0 6 -7 11
-17 11 -31 0 -319 149 -423 219 -155 105 -160 108 -124 75z"/>
<path d="M3646 824 c-23 -23 -20 -30 4 -9 11 10 20 20 20 22 0 7 -9 2 -24 -13z"/>
<path d="M3945 830 c-8 -13 4 -32 16 -25 12 8 12 35 0 35 -6 0 -13 -4 -16 -10z"/>
<path d="M1225 745 c30 -25 179 -115 190 -115 16 0 -28 31 -82 58 -33 17 -74
42 -90 56 -17 14 -35 26 -39 26 -5 -1 5 -12 21 -25z"/>
<path d="M1340 716 c0 -2 7 -7 16 -10 8 -3 12 -2 9 4 -6 10 -25 14 -25 6z"/>
<path d="M3295 630 c-3 -6 1 -7 9 -4 18 7 21 14 7 14 -6 0 -13 -4 -16 -10z"/>
<path d="M3596 577 c3 -10 9 -15 12 -12 3 3 0 11 -7 18 -10 9 -11 8 -5 -6z"/>
<path d="M3605 508 c8 -20 -10 -25 -18 -5 -3 7 -6 5 -6 -5 -1 -20 24 -24 35
-7 3 6 1 16 -5 22 -9 9 -11 8 -6 -5z"/>
<path d="M2898 473 c7 -3 16 -2 19 1 4 3 -2 6 -13 5 -11 0 -14 -3 -6 -6z"/>
<path d="M3417 454 c4 -11 -1 -22 -12 -30 -10 -8 -14 -14 -9 -14 21 0 47 27
41 44 -4 9 -11 16 -16 16 -6 0 -8 -7 -4 -16z"/>
<path d="M1931 436 c11 -12 142 -44 222 -55 102 -14 124 -14 130 3 4 11 -13
13 -86 13 -81 -1 -143 9 -252 40 -11 3 -17 3 -14 -1z"/>
<path d="M1825 380 c-4 -6 5 -10 20 -10 15 0 24 4 20 10 -3 6 -12 10 -20 10
-8 0 -17 -4 -20 -10z"/>
<path d="M1826 318 c3 -4 11 -5 19 -1 21 7 19 12 -4 10 -11 0 -18 -5 -15 -9z"/>
</g>
</svg>
